<svg width="185" height="30" viewBox="0 0 185 30" fill="none" xmlns="http://www.w3.org/2000/svg">
<rect width="185" height="30" rx="15" fill="#B53721"/>
<rect x="7" y="5" width="20" height="20" rx="10" fill="white"/>
<path d="M56.4322 15.2273C56.4322 16.7803 56.1481 18.1155 55.5799 19.233C55.0117 20.3456 54.2328 21.2027 53.2433 21.804C52.2584 22.4006 51.1386 22.6989 49.8839 22.6989C48.6244 22.6989 47.4999 22.4006 46.5103 21.804C45.5254 21.2027 44.7489 20.3433 44.1808 19.2259C43.6126 18.1084 43.3285 16.7756 43.3285 15.2273C43.3285 13.6742 43.6126 12.3414 44.1808 11.2287C44.7489 10.1113 45.5254 9.25426 46.5103 8.65767C47.4999 8.05634 48.6244 7.75568 49.8839 7.75568C51.1386 7.75568 52.2584 8.05634 53.2433 8.65767C54.2328 9.25426 55.0117 10.1113 55.5799 11.2287C56.1481 12.3414 56.4322 13.6742 56.4322 15.2273ZM54.2589 15.2273C54.2589 14.0436 54.0671 13.0469 53.6836 12.2372C53.3048 11.4228 52.784 10.8073 52.1211 10.3906C51.4629 9.96922 50.7172 9.75852 49.8839 9.75852C49.0458 9.75852 48.2977 9.96922 47.6396 10.3906C46.9814 10.8073 46.4606 11.4228 46.0771 12.2372C45.6983 13.0469 45.5089 14.0436 45.5089 15.2273C45.5089 16.411 45.6983 17.41 46.0771 18.2244C46.4606 19.0341 46.9814 19.6496 47.6396 20.071C48.2977 20.4877 49.0458 20.696 49.8839 20.696C50.7172 20.696 51.4629 20.4877 52.1211 20.071C52.784 19.6496 53.3048 19.0341 53.6836 18.2244C54.0671 17.41 54.2589 16.411 54.2589 15.2273ZM64.4613 22.5V7.95455H73.5309V9.84375H66.6559V13.821H69.9087C70.9883 13.821 71.9045 13.9962 72.6573 14.3466C73.4149 14.697 73.9925 15.1918 74.3903 15.831C74.7927 16.4702 74.994 17.223 74.994 18.0895C74.994 18.956 74.7927 19.7206 74.3903 20.3835C73.9925 21.0464 73.4149 21.5649 72.6573 21.9389C71.9045 22.313 70.9883 22.5 69.9087 22.5H64.4613ZM66.6559 20.6534H69.9087C70.5337 20.6534 71.0617 20.5303 71.4925 20.2841C71.9281 20.0379 72.2572 19.7183 72.4798 19.3253C72.707 18.9323 72.8207 18.5109 72.8207 18.0611C72.8207 17.4077 72.5697 16.8466 72.0678 16.3778C71.5659 15.9044 70.8462 15.6676 69.9087 15.6676H66.6559V20.6534ZM77.5863 22.5V7.95455H82.771C83.9026 7.95455 84.8401 8.16051 85.5835 8.57244C86.3268 8.98437 86.8832 9.54782 87.2525 10.2628C87.6218 10.973 87.8065 11.7732 87.8065 12.6634C87.8065 13.5582 87.6194 14.3632 87.2454 15.0781C86.8761 15.7884 86.3174 16.3518 85.5692 16.7685C84.8259 17.1804 83.8907 17.3864 82.7638 17.3864H79.1985V15.5256H82.565C83.2799 15.5256 83.86 15.4025 84.305 15.1562C84.7501 14.9053 85.0768 14.5644 85.2852 14.1335C85.4935 13.7027 85.5977 13.2126 85.5977 12.6634C85.5977 12.1141 85.4935 11.6264 85.2852 11.2003C85.0768 10.7741 84.7478 10.4403 84.2979 10.1989C83.8529 9.95739 83.2657 9.83665 82.5366 9.83665H79.7809V22.5H77.5863ZM90.3793 22.5V7.95455H99.4986V9.84375H92.5739V14.2756H99.0227V16.1577H92.5739V20.6108H99.5838V22.5H90.3793ZM102.43 22.5V7.95455H104.625V14.2756H111.876V7.95455H114.078V22.5H111.876V16.1577H104.625V22.5H102.43ZM116.173 26.0156V20.6392H117.132C117.458 20.3646 117.764 19.974 118.048 19.4673C118.332 18.9607 118.574 18.2765 118.772 17.4148C118.971 16.553 119.109 15.4474 119.184 14.098L119.525 7.95455H128.495V20.6392H130.143V25.9943H128.041V22.5H118.275V26.0156H116.173ZM119.717 20.6392H126.393V9.84375H121.514L121.287 14.098C121.225 15.1255 121.123 16.0488 120.981 16.8679C120.844 17.687 120.666 18.4115 120.449 19.0412C120.235 19.6662 119.992 20.1989 119.717 20.6392ZM132.547 22.5V7.95455H141.667V9.84375H134.742V14.2756H141.191V16.1577H134.742V20.6108H141.752V22.5H132.547Z" fill="white"/>
<rect x="158" y="5" width="20" height="20" rx="10" fill="white"/>
</svg>
