<svg width="111" height="55" viewBox="0 0 111 55" fill="none" xmlns="http://www.w3.org/2000/svg">
<g filter="url(#filter0_f_598_40)">
<path d="M40.7071 28.0711C41.0976 27.6805 41.0976 27.0474 40.7071 26.6568L34.3431 20.2929C33.9526 19.9024 33.3195 19.9024 32.9289 20.2929C32.5384 20.6834 32.5384 21.3166 32.9289 21.7071L38.5858 27.364L32.9289 33.0208C32.5384 33.4113 32.5384 34.0445 32.9289 34.435C33.3195 34.8255 33.9526 34.8255 34.3431 34.435L40.7071 28.0711ZM20 27.364V28.364H40V27.364V26.364H20V27.364Z" fill="black"/>
<path d="M65.7071 28.0711C66.0976 27.6805 66.0976 27.0474 65.7071 26.6568L59.3431 20.2929C58.9526 19.9024 58.3195 19.9024 57.9289 20.2929C57.5384 20.6834 57.5384 21.3166 57.9289 21.7071L63.5858 27.364L57.9289 33.0208C57.5384 33.4113 57.5384 34.0445 57.9289 34.435C58.3195 34.8255 58.9526 34.8255 59.3431 34.435L65.7071 28.0711ZM45 27.364V28.364H65V27.364V26.364H45V27.364Z" fill="black"/>
<path d="M90.7071 28.0711C91.0976 27.6805 91.0976 27.0474 90.7071 26.6568L84.3431 20.2929C83.9526 19.9024 83.3195 19.9024 82.9289 20.2929C82.5384 20.6834 82.5384 21.3166 82.9289 21.7071L88.5858 27.364L82.9289 33.0208C82.5384 33.4113 82.5384 34.0445 82.9289 34.435C83.3195 34.8255 83.9526 34.8255 84.3431 34.435L90.7071 28.0711ZM70 27.364V28.364H90V27.364V26.364H70V27.364Z" fill="black"/>
</g>
<defs>
<filter id="filter0_f_598_40" x="0" y="-2.63605" width="111" height="60" filterUnits="userSpaceOnUse" color-interpolation-filters="sRGB">
<feFlood flood-opacity="0" result="BackgroundImageFix"/>
<feBlend mode="normal" in="SourceGraphic" in2="BackgroundImageFix" result="shape"/>
<feGaussianBlur stdDeviation="10" result="effect1_foregroundBlur_598_40"/>
</filter>
</defs>
</svg>
