<svg width="45" height="35" viewBox="0 0 45 35" fill="none" xmlns="http://www.w3.org/2000/svg">
<rect x="1" y="1" width="33" height="33" rx="16.5" stroke="#A02424" stroke-width="2"/>
<rect x="23" y="7" width="22" height="22" rx="11" fill="white"/>
<path d="M42.7071 18.7071C43.0976 18.3166 43.0976 17.6834 42.7071 17.2929L36.3431 10.9289C35.9526 10.5384 35.3195 10.5384 34.9289 10.9289C34.5384 11.3195 34.5384 11.9526 34.9289 12.3431L40.5858 18L34.9289 23.6569C34.5384 24.0474 34.5384 24.6805 34.9289 25.0711C35.3195 25.4616 35.9526 25.4616 36.3431 25.0711L42.7071 18.7071ZM25 18V19L42 19V18V17L25 17V18Z" fill="#A02424"/>
</svg>
