<svg width="192" height="40" viewBox="0 0 192 40" fill="none" xmlns="http://www.w3.org/2000/svg" xmlns:xlink="http://www.w3.org/1999/xlink">
<g id="Repeat group 1_inner" data-figma-trr="r10u3-0f">
<path d="M19.0668 10.7102C19.0668 10.342 19.4847 10.0435 20.0002 10.0435C20.5157 10.0435 20.9336 10.342 20.9336 10.7102V14.3549C20.9336 14.7231 20.5157 15.0216 20.0002 15.0216C19.4847 15.0216 19.0668 14.7231 19.0668 14.3549V10.7102Z" fill="#A02424"/>
</g>
<use xlink:href="#Repeat%20group%201_inner" transform="translate(15.5754 -7.93615) rotate(36)"/>
<use xlink:href="#Repeat%20group%201_inner" transform="translate(32.8409 -5.20165) rotate(72)"/>
<use xlink:href="#Repeat%20group%201_inner" transform="translate(45.2017 7.15902) rotate(108)"/>
<use xlink:href="#Repeat%20group%201_inner" transform="translate(47.9364 24.4245) rotate(144)"/>
<use xlink:href="#Repeat%20group%201_inner" transform="translate(40.0004 40) rotate(-180)"/>
<use xlink:href="#Repeat%20group%201_inner" transform="translate(24.425 47.9361) rotate(-144)"/>
<use xlink:href="#Repeat%20group%201_inner" transform="translate(7.15946 45.2016) rotate(-108)"/>
<use xlink:href="#Repeat%20group%201_inner" transform="translate(-5.20133 32.8409) rotate(-72)"/>
<use xlink:href="#Repeat%20group%201_inner" transform="translate(-7.936 15.5755) rotate(-36)"/>
<path d="M50.8712 18H49.4621C49.3787 17.5947 49.2329 17.2386 49.0246 16.9318C48.82 16.625 48.57 16.3674 48.2746 16.1591C47.9829 15.947 47.659 15.7879 47.303 15.6818C46.9469 15.5758 46.5757 15.5227 46.1893 15.5227C45.4848 15.5227 44.8465 15.7008 44.2746 16.0568C43.7064 16.4129 43.2537 16.9375 42.9166 17.6307C42.5833 18.3239 42.4166 19.1742 42.4166 20.1818C42.4166 21.1894 42.5833 22.0398 42.9166 22.733C43.2537 23.4261 43.7064 23.9508 44.2746 24.3068C44.8465 24.6629 45.4848 24.8409 46.1893 24.8409C46.5757 24.8409 46.9469 24.7879 47.303 24.6818C47.659 24.5758 47.9829 24.4186 48.2746 24.2102C48.57 23.9981 48.82 23.7386 49.0246 23.4318C49.2329 23.1212 49.3787 22.7652 49.4621 22.3636H50.8712C50.7651 22.9583 50.5719 23.4905 50.2916 23.9602C50.0113 24.4299 49.6628 24.8295 49.2462 25.1591C48.8295 25.4848 48.3617 25.733 47.8428 25.9034C47.3276 26.0739 46.7765 26.1591 46.1893 26.1591C45.1969 26.1591 44.3143 25.9167 43.5416 25.4318C42.7689 24.947 42.1609 24.2576 41.7178 23.3636C41.2746 22.4697 41.053 21.4091 41.053 20.1818C41.053 18.9545 41.2746 17.8939 41.7178 17C42.1609 16.1061 42.7689 15.4167 43.5416 14.9318C44.3143 14.447 45.1969 14.2045 46.1893 14.2045C46.7765 14.2045 47.3276 14.2898 47.8428 14.4602C48.3617 14.6307 48.8295 14.8807 49.2462 15.2102C49.6628 15.536 50.0113 15.9337 50.2916 16.4034C50.5719 16.8693 50.7651 17.4015 50.8712 18ZM52.1663 26V17.2727H53.4618V18.5909H53.5527C53.7118 18.1591 53.9997 17.8087 54.4163 17.5398C54.833 17.2708 55.3027 17.1364 55.8254 17.1364C55.9239 17.1364 56.047 17.1383 56.1947 17.142C56.3425 17.1458 56.4542 17.1515 56.53 17.1591V18.5227C56.4845 18.5114 56.3803 18.4943 56.2175 18.4716C56.0584 18.4451 55.8898 18.4318 55.7118 18.4318C55.2875 18.4318 54.9088 18.5208 54.5754 18.6989C54.2459 18.8731 53.9845 19.1155 53.7913 19.4261C53.6019 19.733 53.5072 20.0833 53.5072 20.4773V26H52.1663ZM60.7129 26.1818C59.872 26.1818 59.1466 25.9962 58.5368 25.625C57.9307 25.25 57.4629 24.7273 57.1334 24.0568C56.8076 23.3826 56.6447 22.5985 56.6447 21.7045C56.6447 20.8106 56.8076 20.0227 57.1334 19.3409C57.4629 18.6553 57.9213 18.1212 58.5084 17.7386C59.0993 17.3523 59.7887 17.1591 60.5766 17.1591C61.0311 17.1591 61.48 17.2348 61.9232 17.3864C62.3663 17.5379 62.7697 17.7841 63.1334 18.125C63.497 18.4621 63.7868 18.9091 64.0027 19.4659C64.2186 20.0227 64.3266 20.7083 64.3266 21.5227V22.0909H57.5993V20.9318H62.9629C62.9629 20.4394 62.8644 20 62.6675 19.6136C62.4743 19.2273 62.1978 18.9223 61.8379 18.6989C61.4819 18.4754 61.0614 18.3636 60.5766 18.3636C60.0425 18.3636 59.5803 18.4962 59.1902 18.7614C58.8038 19.0227 58.5065 19.3636 58.2982 19.7841C58.0898 20.2045 57.9857 20.6553 57.9857 21.1364V21.9091C57.9857 22.5682 58.0993 23.1269 58.3266 23.5852C58.5576 24.0398 58.8777 24.3864 59.2868 24.625C59.6959 24.8598 60.1713 24.9773 60.7129 24.9773C61.0652 24.9773 61.3834 24.928 61.6675 24.8295C61.9553 24.7273 62.2035 24.5758 62.4118 24.375C62.6201 24.1705 62.7811 23.9167 62.8947 23.6136L64.1902 23.9773C64.0538 24.4167 63.8247 24.803 63.5027 25.1364C63.1807 25.4659 62.783 25.7235 62.3095 25.9091C61.836 26.0909 61.3038 26.1818 60.7129 26.1818ZM68.1345 26.2045C67.5815 26.2045 67.0796 26.1004 66.6288 25.892C66.1781 25.6799 65.8201 25.375 65.555 24.9773C65.2898 24.5758 65.1572 24.0909 65.1572 23.5227C65.1572 23.0227 65.2557 22.6174 65.4527 22.3068C65.6497 21.9924 65.9129 21.7462 66.2425 21.5682C66.572 21.3902 66.9357 21.2576 67.3334 21.1705C67.7349 21.0795 68.1383 21.0076 68.5436 20.9545C69.0739 20.8864 69.5038 20.8352 69.8334 20.8011C70.1667 20.7633 70.4091 20.7008 70.5607 20.6136C70.716 20.5265 70.7936 20.375 70.7936 20.1591V20.1136C70.7936 19.553 70.6402 19.1174 70.3334 18.8068C70.0303 18.4962 69.5701 18.3409 68.9527 18.3409C68.3125 18.3409 67.8107 18.4811 67.447 18.7614C67.0834 19.0417 66.8277 19.3409 66.68 19.6591L65.4072 19.2045C65.6345 18.6742 65.9375 18.2614 66.3163 17.9659C66.6989 17.6667 67.1156 17.4583 67.5663 17.3409C68.0209 17.2197 68.4678 17.1591 68.9072 17.1591C69.1875 17.1591 69.5095 17.1932 69.8732 17.2614C70.2406 17.3258 70.5947 17.4602 70.9357 17.6648C71.2803 17.8693 71.5663 18.178 71.7936 18.5909C72.0209 19.0038 72.1345 19.5568 72.1345 20.25V26H70.7936V24.8182H70.7254C70.6345 25.0076 70.483 25.2102 70.2709 25.4261C70.0588 25.642 69.7766 25.8258 69.4243 25.9773C69.072 26.1288 68.6421 26.2045 68.1345 26.2045ZM68.3391 25C68.8694 25 69.3163 24.8958 69.68 24.6875C70.0474 24.4792 70.3239 24.2102 70.5095 23.8807C70.6989 23.5511 70.7936 23.2045 70.7936 22.8409V21.6136C70.7368 21.6818 70.6118 21.7443 70.4186 21.8011C70.2292 21.8542 70.0095 21.9015 69.7595 21.9432C69.5133 21.9811 69.2728 22.0152 69.0379 22.0455C68.8069 22.072 68.6194 22.0947 68.4754 22.1136C68.1269 22.1591 67.8012 22.233 67.4982 22.3352C67.1989 22.4337 66.9565 22.5833 66.7709 22.7841C66.5891 22.9811 66.4982 23.25 66.4982 23.5909C66.4982 24.0568 66.6705 24.4091 67.0152 24.6477C67.3637 24.8826 67.805 25 68.3391 25ZM77.5774 17.2727V18.4091H73.0547V17.2727H77.5774ZM74.3729 15.1818H75.7138V23.5C75.7138 23.8788 75.7687 24.1629 75.8785 24.3523C75.9922 24.5379 76.1361 24.6629 76.3104 24.7273C76.4884 24.7879 76.6759 24.8182 76.8729 24.8182C77.0206 24.8182 77.1418 24.8106 77.2365 24.7955C77.3312 24.7765 77.407 24.7614 77.4638 24.75L77.7365 25.9545C77.6456 25.9886 77.5187 26.0227 77.3558 26.0568C77.1929 26.0947 76.9865 26.1136 76.7365 26.1136C76.3577 26.1136 75.9865 26.0322 75.6229 25.8693C75.263 25.7064 74.9638 25.4583 74.7251 25.125C74.4903 24.7917 74.3729 24.3712 74.3729 23.8636V15.1818ZM82.3598 26.1818C81.5189 26.1818 80.7935 25.9962 80.1837 25.625C79.5776 25.25 79.1098 24.7273 78.7803 24.0568C78.4545 23.3826 78.2916 22.5985 78.2916 21.7045C78.2916 20.8106 78.4545 20.0227 78.7803 19.3409C79.1098 18.6553 79.5681 18.1212 80.1553 17.7386C80.7462 17.3523 81.4356 17.1591 82.2234 17.1591C82.678 17.1591 83.1268 17.2348 83.57 17.3864C84.0132 17.5379 84.4166 17.7841 84.7803 18.125C85.1439 18.4621 85.4337 18.9091 85.6496 19.4659C85.8655 20.0227 85.9734 20.7083 85.9734 21.5227V22.0909H79.2462V20.9318H84.6098C84.6098 20.4394 84.5113 20 84.3143 19.6136C84.1212 19.2273 83.8446 18.9223 83.4848 18.6989C83.1287 18.4754 82.7083 18.3636 82.2234 18.3636C81.6893 18.3636 81.2272 18.4962 80.8371 18.7614C80.4507 19.0227 80.1534 19.3636 79.945 19.7841C79.7367 20.2045 79.6325 20.6553 79.6325 21.1364V21.9091C79.6325 22.5682 79.7462 23.1269 79.9734 23.5852C80.2045 24.0398 80.5246 24.3864 80.9337 24.625C81.3428 24.8598 81.8181 24.9773 82.3598 24.9773C82.7121 24.9773 83.0303 24.928 83.3143 24.8295C83.6022 24.7273 83.8503 24.5758 84.0587 24.375C84.267 24.1705 84.428 23.9167 84.5416 23.6136L85.8371 23.9773C85.7007 24.4167 85.4715 24.803 85.1496 25.1364C84.8276 25.4659 84.4299 25.7235 83.9564 25.9091C83.4829 26.0909 82.9507 26.1818 82.3598 26.1818ZM90.5087 26.1818C89.7814 26.1818 89.1393 25.9981 88.5825 25.6307C88.0257 25.2595 87.5901 24.7367 87.2757 24.0625C86.9613 23.3845 86.8041 22.5833 86.8041 21.6591C86.8041 20.7424 86.9613 19.947 87.2757 19.2727C87.5901 18.5985 88.0276 18.0777 88.5882 17.7102C89.1488 17.3428 89.7965 17.1591 90.5314 17.1591C91.0996 17.1591 91.5484 17.2538 91.878 17.4432C92.2113 17.6288 92.4651 17.8409 92.6393 18.0795C92.8174 18.3144 92.9556 18.5076 93.0541 18.6591H93.1678V14.3636H94.5087V26H93.2132V24.6591H93.0541C92.9556 24.8182 92.8155 25.0189 92.6337 25.2614C92.4518 25.5 92.1924 25.714 91.8553 25.9034C91.5181 26.089 91.0693 26.1818 90.5087 26.1818ZM90.6905 24.9773C91.2284 24.9773 91.6829 24.8371 92.0541 24.5568C92.4253 24.2727 92.7075 23.8807 92.9007 23.3807C93.0939 22.8769 93.1905 22.2955 93.1905 21.6364C93.1905 20.9848 93.0958 20.4148 92.9064 19.9261C92.717 19.4337 92.4367 19.0511 92.0655 18.7784C91.6943 18.5019 91.2359 18.3636 90.6905 18.3636C90.1223 18.3636 89.6488 18.5095 89.27 18.8011C88.895 19.089 88.6128 19.4811 88.4234 19.9773C88.2378 20.4697 88.145 21.0227 88.145 21.6364C88.145 22.2576 88.2397 22.822 88.4291 23.3295C88.6223 23.8333 88.9064 24.2348 89.2814 24.5341C89.6602 24.8295 90.1299 24.9773 90.6905 24.9773ZM100.233 26V14.3636H101.573V18.6591H101.687C101.786 18.5076 101.922 18.3144 102.096 18.0795C102.274 17.8409 102.528 17.6288 102.858 17.4432C103.191 17.2538 103.642 17.1591 104.21 17.1591C104.945 17.1591 105.592 17.3428 106.153 17.7102C106.714 18.0777 107.151 18.5985 107.465 19.2727C107.78 19.947 107.937 20.7424 107.937 21.6591C107.937 22.5833 107.78 23.3845 107.465 24.0625C107.151 24.7367 106.715 25.2595 106.159 25.6307C105.602 25.9981 104.96 26.1818 104.233 26.1818C103.672 26.1818 103.223 26.089 102.886 25.9034C102.549 25.714 102.289 25.5 102.108 25.2614C101.926 25.0189 101.786 24.8182 101.687 24.6591H101.528V26H100.233ZM101.551 21.6364C101.551 22.2955 101.647 22.8769 101.84 23.3807C102.034 23.8807 102.316 24.2727 102.687 24.5568C103.058 24.8371 103.513 24.9773 104.051 24.9773C104.611 24.9773 105.079 24.8295 105.454 24.5341C105.833 24.2348 106.117 23.8333 106.306 23.3295C106.5 22.822 106.596 22.2576 106.596 21.6364C106.596 21.0227 106.501 20.4697 106.312 19.9773C106.126 19.4811 105.844 19.089 105.465 18.8011C105.09 18.5095 104.619 18.3636 104.051 18.3636C103.505 18.3636 103.047 18.5019 102.676 18.7784C102.304 19.0511 102.024 19.4337 101.835 19.9261C101.645 20.4148 101.551 20.9848 101.551 21.6364ZM109.739 29.2727C109.512 29.2727 109.309 29.2538 109.131 29.2159C108.953 29.1818 108.83 29.1477 108.762 29.1136L109.103 27.9318C109.429 28.0152 109.717 28.0455 109.967 28.0227C110.217 28 110.438 27.8883 110.631 27.6875C110.828 27.4905 111.008 27.1705 111.171 26.7273L111.421 26.0455L108.194 17.2727H109.648L112.058 24.2273H112.148L114.558 17.2727H116.012L112.308 27.2727C112.141 27.7235 111.934 28.0966 111.688 28.392C111.442 28.6913 111.156 28.9129 110.83 29.0568C110.508 29.2008 110.145 29.2727 109.739 29.2727ZM127.227 17.2727C127.159 16.697 126.883 16.25 126.398 15.9318C125.913 15.6136 125.318 15.4545 124.614 15.4545C124.099 15.4545 123.648 15.5379 123.261 15.7045C122.879 15.8712 122.58 16.1004 122.364 16.392C122.152 16.6837 122.046 17.0152 122.046 17.3864C122.046 17.697 122.119 17.964 122.267 18.1875C122.419 18.4072 122.612 18.5909 122.847 18.7386C123.082 18.8826 123.328 19.0019 123.585 19.0966C123.843 19.1875 124.08 19.2614 124.296 19.3182L125.477 19.6364C125.78 19.7159 126.118 19.8258 126.489 19.9659C126.864 20.1061 127.222 20.2973 127.563 20.5398C127.907 20.7784 128.191 21.0852 128.415 21.4602C128.638 21.8352 128.75 22.2955 128.75 22.8409C128.75 23.4697 128.585 24.0379 128.256 24.5455C127.93 25.053 127.453 25.4564 126.824 25.7557C126.199 26.0549 125.44 26.2045 124.546 26.2045C123.712 26.2045 122.991 26.0701 122.381 25.8011C121.775 25.5322 121.297 25.1572 120.949 24.6761C120.604 24.1951 120.409 23.6364 120.364 23H121.818C121.856 23.4394 122.004 23.803 122.261 24.0909C122.523 24.375 122.852 24.5871 123.25 24.7273C123.652 24.8636 124.083 24.9318 124.546 24.9318C125.083 24.9318 125.566 24.8447 125.994 24.6705C126.422 24.4924 126.761 24.2462 127.011 23.9318C127.261 23.6136 127.386 23.2424 127.386 22.8182C127.386 22.4318 127.279 22.1174 127.063 21.875C126.847 21.6326 126.563 21.4356 126.21 21.2841C125.858 21.1326 125.477 21 125.068 20.8864L123.636 20.4773C122.727 20.2159 122.008 19.8428 121.477 19.358C120.947 18.8731 120.682 18.2386 120.682 17.4545C120.682 16.803 120.858 16.2348 121.21 15.75C121.566 15.2614 122.044 14.8826 122.642 14.6136C123.244 14.3409 123.917 14.2045 124.659 14.2045C125.409 14.2045 126.076 14.339 126.659 14.608C127.243 14.8731 127.705 15.2367 128.046 15.6989C128.39 16.161 128.572 16.6856 128.591 17.2727H127.227ZM133.631 26.1818C132.812 26.1818 132.108 25.9886 131.517 25.6023C130.926 25.2159 130.471 24.6837 130.153 24.0057C129.835 23.3277 129.676 22.553 129.676 21.6818C129.676 20.7955 129.839 20.0133 130.165 19.3352C130.494 18.6534 130.953 18.1212 131.54 17.7386C132.131 17.3523 132.82 17.1591 133.608 17.1591C134.221 17.1591 134.774 17.2727 135.267 17.5C135.759 17.7273 136.163 18.0455 136.477 18.4545C136.792 18.8636 136.987 19.3409 137.062 19.8864H135.721C135.619 19.4886 135.392 19.1364 135.04 18.8295C134.691 18.5189 134.221 18.3636 133.631 18.3636C133.108 18.3636 132.649 18.5 132.256 18.7727C131.865 19.0417 131.56 19.4223 131.341 19.9148C131.125 20.4034 131.017 20.9773 131.017 21.6364C131.017 22.3106 131.123 22.8977 131.335 23.3977C131.551 23.8977 131.854 24.286 132.244 24.5625C132.638 24.839 133.1 24.9773 133.631 24.9773C133.979 24.9773 134.295 24.9167 134.579 24.7955C134.863 24.6742 135.104 24.5 135.301 24.2727C135.498 24.0455 135.638 23.7727 135.721 23.4545H137.062C136.987 23.9697 136.799 24.4337 136.5 24.8466C136.204 25.2557 135.812 25.5814 135.324 25.8239C134.839 26.0625 134.274 26.1818 133.631 26.1818ZM141.882 26.1818C141.041 26.1818 140.315 25.9962 139.706 25.625C139.099 25.25 138.632 24.7273 138.302 24.0568C137.976 23.3826 137.813 22.5985 137.813 21.7045C137.813 20.8106 137.976 20.0227 138.302 19.3409C138.632 18.6553 139.09 18.1212 139.677 17.7386C140.268 17.3523 140.957 17.1591 141.745 17.1591C142.2 17.1591 142.649 17.2348 143.092 17.3864C143.535 17.5379 143.938 17.7841 144.302 18.125C144.666 18.4621 144.956 18.9091 145.171 19.4659C145.387 20.0227 145.495 20.7083 145.495 21.5227V22.0909H138.768V20.9318H144.132C144.132 20.4394 144.033 20 143.836 19.6136C143.643 19.2273 143.367 18.9223 143.007 18.6989C142.651 18.4754 142.23 18.3636 141.745 18.3636C141.211 18.3636 140.749 18.4962 140.359 18.7614C139.973 19.0227 139.675 19.3636 139.467 19.7841C139.259 20.2045 139.154 20.6553 139.154 21.1364V21.9091C139.154 22.5682 139.268 23.1269 139.495 23.5852C139.726 24.0398 140.046 24.3864 140.456 24.625C140.865 24.8598 141.34 24.9773 141.882 24.9773C142.234 24.9773 142.552 24.928 142.836 24.8295C143.124 24.7273 143.372 24.5758 143.581 24.375C143.789 24.1705 143.95 23.9167 144.063 23.6136L145.359 23.9773C145.223 24.4167 144.993 24.803 144.671 25.1364C144.349 25.4659 143.952 25.7235 143.478 25.9091C143.005 26.0909 142.473 26.1818 141.882 26.1818ZM148.076 20.75V26H146.735V17.2727H148.031V18.6364H148.144C148.349 18.1932 148.659 17.8371 149.076 17.5682C149.493 17.2955 150.031 17.1591 150.69 17.1591C151.281 17.1591 151.798 17.2803 152.241 17.5227C152.684 17.7614 153.029 18.125 153.275 18.6136C153.521 19.0985 153.644 19.7121 153.644 20.4545V26H152.303V20.5455C152.303 19.8598 152.125 19.3258 151.769 18.9432C151.413 18.5568 150.924 18.3636 150.303 18.3636C149.875 18.3636 149.493 18.4564 149.156 18.642C148.822 18.8277 148.559 19.0985 148.366 19.4545C148.173 19.8106 148.076 20.2424 148.076 20.75ZM159.09 17.2727V18.4091H154.567V17.2727H159.09ZM155.885 15.1818H157.226V23.5C157.226 23.8788 157.281 24.1629 157.391 24.3523C157.505 24.5379 157.649 24.6629 157.823 24.7273C158.001 24.7879 158.188 24.8182 158.385 24.8182C158.533 24.8182 158.654 24.8106 158.749 24.7955C158.844 24.7765 158.919 24.7614 158.976 24.75L159.249 25.9545C159.158 25.9886 159.031 26.0227 158.868 26.0568C158.705 26.0947 158.499 26.1136 158.249 26.1136C157.87 26.1136 157.499 26.0322 157.135 25.8693C156.776 25.7064 156.476 25.4583 156.238 25.125C156.003 24.7917 155.885 24.3712 155.885 23.8636V15.1818ZM165.807 22.4318V17.2727H167.148V26H165.807V24.5227H165.716C165.511 24.9659 165.193 25.3428 164.761 25.6534C164.33 25.9602 163.784 26.1136 163.125 26.1136C162.58 26.1136 162.095 25.9943 161.671 25.7557C161.246 25.5133 160.913 25.1496 160.671 24.6648C160.428 24.1761 160.307 23.5606 160.307 22.8182V17.2727H161.648V22.7273C161.648 23.3636 161.826 23.8712 162.182 24.25C162.542 24.6288 163 24.8182 163.557 24.8182C163.89 24.8182 164.229 24.733 164.574 24.5625C164.922 24.392 165.214 24.1307 165.449 23.7784C165.688 23.4261 165.807 22.9773 165.807 22.4318ZM168.804 26V17.2727H170.099V18.5909H170.19C170.349 18.1591 170.637 17.8087 171.054 17.5398C171.471 17.2708 171.94 17.1364 172.463 17.1364C172.561 17.1364 172.685 17.1383 172.832 17.142C172.98 17.1458 173.092 17.1515 173.167 17.1591V18.5227C173.122 18.5114 173.018 18.4943 172.855 18.4716C172.696 18.4451 172.527 18.4318 172.349 18.4318C171.925 18.4318 171.546 18.5208 171.213 18.6989C170.883 18.8731 170.622 19.1155 170.429 19.4261C170.239 19.733 170.145 20.0833 170.145 20.4773V26H168.804ZM175.086 29.2727C174.859 29.2727 174.656 29.2538 174.478 29.2159C174.3 29.1818 174.177 29.1477 174.109 29.1136L174.45 27.9318C174.776 28.0152 175.063 28.0455 175.313 28.0227C175.563 28 175.785 27.8883 175.978 27.6875C176.175 27.4905 176.355 27.1705 176.518 26.7273L176.768 26.0455L173.541 17.2727H174.995L177.404 24.2273H177.495L179.904 17.2727H181.359L177.654 27.2727C177.488 27.7235 177.281 28.0966 177.035 28.392C176.789 28.6913 176.503 28.9129 176.177 29.0568C175.855 29.2008 175.492 29.2727 175.086 29.2727Z" fill="#A02424"/>
</svg>
