<svg width="25" height="25" viewBox="0 0 25 25" fill="none" xmlns="http://www.w3.org/2000/svg">
<path d="M16.5588 1H8.44118C4.33153 1 1 4.33153 1 8.44118V16.5588C1 20.6685 4.33153 24 8.44118 24H16.5588C20.6685 24 24 20.6685 24 16.5588V8.44118C24 4.33153 20.6685 1 16.5588 1Z" stroke="black" stroke-width="1.5" stroke-linecap="round" stroke-linejoin="round"/>
<path d="M12.5 17.3787C15.1944 17.3787 17.3787 15.1944 17.3787 12.5C17.3787 9.80557 15.1944 7.6213 12.5 7.6213C9.80555 7.6213 7.62128 9.80557 7.62128 12.5C7.62128 15.1944 9.80555 17.3787 12.5 17.3787Z" stroke="black" stroke-width="1.5" stroke-linecap="round" stroke-linejoin="round"/>
<path d="M19.1213 7.27223C19.8909 7.27223 20.5148 6.64833 20.5148 5.87871C20.5148 5.10908 19.8909 4.48518 19.1213 4.48518C18.3517 4.48518 17.7278 5.10908 17.7278 5.87871C17.7278 6.64833 18.3517 7.27223 19.1213 7.27223Z" fill="black"/>
</svg>
