<svg width="14" height="21" viewBox="0 0 14 21" fill="none" xmlns="http://www.w3.org/2000/svg">
<path d="M1.3605 20.9991C1.3605 20.5135 1.31344 20.1066 1.38188 19.7138C1.41076 19.5466 1.64925 19.3673 1.84496 19.2666C2.79357 18.774 3.82346 18.3803 4.70791 17.815C7.56978 15.9845 9.26595 13.5748 9.35899 10.444C9.38466 9.55592 8.98468 9.3328 8.0735 9.68017C5.43942 10.6794 2.60642 10.0932 1.09527 8.23643C-0.55277 6.20994 -0.320697 3.51145 1.6546 1.74221C4.17638 -0.517033 8.32803 -0.585282 11.191 1.57421C12.9053 2.86745 13.7203 4.53695 13.9234 6.43656C14.6047 12.7987 10.7044 18.0434 3.60422 20.3473C2.90159 20.5748 2.18184 20.762 1.3605 20.9991Z" fill="white"/>
</svg>
