<svg width="476" height="150" viewBox="0 0 476 150" fill="none" xmlns="http://www.w3.org/2000/svg" xmlns:xlink="http://www.w3.org/1999/xlink">
<rect width="380" height="150" rx="75" fill="#B83521"/>
<path d="M392 75C392 116.421 375.211 150 354.5 150C333.789 150 317 116.421 317 75C317 33.5786 333.789 0 354.5 0C375.211 0 392 33.5786 392 75Z" fill="#CF402A"/>
<path d="M416 75C416 116.421 403.688 150 388.5 150C373.312 150 361 116.421 361 75C361 33.5786 373.312 0 388.5 0C403.688 0 416 33.5786 416 75Z" fill="#E15D49"/>
<path d="M436 75C436 116.421 425.926 150 413.5 150C401.074 150 391 116.421 391 75C391 33.5786 401.074 0 413.5 0C425.926 0 436 33.5786 436 75Z" fill="#EF6C58"/>
<path d="M461 75C461 116.421 455.404 150 448.5 150C441.596 150 436 116.421 436 75C436 33.5786 441.596 0 448.5 0C455.404 0 461 33.5786 461 75Z" fill="#FF8A78"/>
<path d="M476 75C476 116.421 472.642 150 468.5 150C464.358 150 461 116.421 461 75C461 33.5786 464.358 0 468.5 0C472.642 0 476 33.5786 476 75Z" fill="#FFA294"/>
<path d="M35.4091 74.8182V70.75H36.1591C36.4167 70.5152 36.6591 70.1837 36.8864 69.7557C37.1174 69.3239 37.3125 68.7481 37.4716 68.0284C37.6345 67.3049 37.7424 66.3864 37.7955 65.2727L38.0455 60.3636H44.9545V70.75H46.2955V74.7955H44.9545V72H36.75V74.8182H35.4091ZM37.8409 70.75H43.6136V61.6136H39.3182L39.1364 65.2727C39.0909 66.1212 39.0114 66.8902 38.8977 67.5795C38.7841 68.2652 38.6383 68.8731 38.4602 69.4034C38.2822 69.9299 38.0758 70.3788 37.8409 70.75ZM51.3084 72.1818C50.5205 72.1818 49.8292 71.9943 49.2345 71.6193C48.6436 71.2443 48.1815 70.7197 47.8481 70.0455C47.5186 69.3712 47.3538 68.5833 47.3538 67.6818C47.3538 66.7727 47.5186 65.9792 47.8481 65.3011C48.1815 64.6231 48.6436 64.0966 49.2345 63.7216C49.8292 63.3466 50.5205 63.1591 51.3084 63.1591C52.0962 63.1591 52.7856 63.3466 53.3765 63.7216C53.9712 64.0966 54.4334 64.6231 54.7629 65.3011C55.0962 65.9792 55.2629 66.7727 55.2629 67.6818C55.2629 68.5833 55.0962 69.3712 54.7629 70.0455C54.4334 70.7197 53.9712 71.2443 53.3765 71.6193C52.7856 71.9943 52.0962 72.1818 51.3084 72.1818ZM51.3084 70.9773C51.9068 70.9773 52.3993 70.8239 52.7856 70.517C53.172 70.2102 53.458 69.8068 53.6436 69.3068C53.8292 68.8068 53.922 68.2652 53.922 67.6818C53.922 67.0985 53.8292 66.5549 53.6436 66.0511C53.458 65.5473 53.172 65.1402 52.7856 64.8295C52.3993 64.5189 51.9068 64.3636 51.3084 64.3636C50.7099 64.3636 50.2174 64.5189 49.8311 64.8295C49.4447 65.1402 49.1587 65.5473 48.9731 66.0511C48.7875 66.5549 48.6947 67.0985 48.6947 67.6818C48.6947 68.2652 48.7875 68.8068 48.9731 69.3068C49.1587 69.8068 49.4447 70.2102 49.8311 70.517C50.2174 70.8239 50.7099 70.9773 51.3084 70.9773ZM63.307 60L63.9889 60.8182C63.7237 61.0758 63.4169 61.2557 63.0684 61.358C62.7199 61.4602 62.326 61.5227 61.8866 61.5455C61.4472 61.5682 60.9586 61.5909 60.4207 61.6136C59.8146 61.6364 59.3127 61.7841 58.915 62.0568C58.5173 62.3295 58.2105 62.7235 57.9945 63.2386C57.7786 63.7538 57.6404 64.3864 57.5798 65.1364H57.6934C57.9889 64.5909 58.398 64.1894 58.9207 63.9318C59.4434 63.6742 60.004 63.5455 60.6025 63.5455C61.2843 63.5455 61.898 63.7045 62.4434 64.0227C62.9889 64.3409 63.4207 64.8125 63.7389 65.4375C64.057 66.0625 64.2161 66.8333 64.2161 67.75C64.2161 68.6629 64.0533 69.4508 63.7275 70.1136C63.4055 70.7765 62.9529 71.2879 62.3695 71.6477C61.79 72.0038 61.1101 72.1818 60.3298 72.1818C59.5495 72.1818 58.8658 71.9981 58.2786 71.6307C57.6915 71.2595 57.2351 70.7102 56.9093 69.983C56.5836 69.2519 56.4207 68.3485 56.4207 67.2727V66.3409C56.4207 64.3977 56.7502 62.9242 57.4093 61.9205C58.0722 60.9167 59.0684 60.3977 60.398 60.3636C60.8677 60.3485 61.2862 60.3447 61.6536 60.3523C62.0211 60.3598 62.3411 60.3428 62.6139 60.3011C62.8866 60.2595 63.1177 60.1591 63.307 60ZM60.3298 70.9773C60.8563 70.9773 61.3089 70.8447 61.6877 70.5795C62.0703 70.3144 62.3639 69.9413 62.5684 69.4602C62.773 68.9754 62.8752 68.4053 62.8752 67.75C62.8752 67.1136 62.7711 66.572 62.5627 66.125C62.3582 65.678 62.0646 65.3371 61.682 65.1023C61.2995 64.8674 60.8411 64.75 60.307 64.75C59.9169 64.75 59.5665 64.8163 59.2559 64.9489C58.9453 65.0814 58.6802 65.2765 58.4605 65.5341C58.2408 65.7917 58.0703 66.1061 57.9491 66.4773C57.8317 66.8485 57.7692 67.2727 57.7616 67.75C57.7616 68.7273 57.9908 69.5095 58.4491 70.0966C58.9074 70.6837 59.5343 70.9773 60.3298 70.9773ZM65.7873 75.2727V63.2727H67.0827V64.6591H67.2418C67.3403 64.5076 67.4767 64.3144 67.6509 64.0795C67.8289 63.8409 68.0827 63.6288 68.4123 63.4432C68.7456 63.2538 69.1964 63.1591 69.7645 63.1591C70.4994 63.1591 71.1471 63.3428 71.7077 63.7102C72.2683 64.0777 72.7058 64.5985 73.0202 65.2727C73.3346 65.947 73.4918 66.7424 73.4918 67.6591C73.4918 68.5833 73.3346 69.3845 73.0202 70.0625C72.7058 70.7367 72.2702 71.2595 71.7134 71.6307C71.1566 71.9981 70.5145 72.1818 69.7873 72.1818C69.2267 72.1818 68.7778 72.089 68.4407 71.9034C68.1036 71.714 67.8441 71.5 67.6623 71.2614C67.4805 71.0189 67.3403 70.8182 67.2418 70.6591H67.1282V75.2727H65.7873ZM67.1055 67.6364C67.1055 68.2955 67.202 68.8769 67.3952 69.3807C67.5884 69.8807 67.8706 70.2727 68.2418 70.5568C68.613 70.8371 69.0676 70.9773 69.6055 70.9773C70.1661 70.9773 70.6339 70.8295 71.0089 70.5341C71.3877 70.2348 71.6717 69.8333 71.8611 69.3295C72.0543 68.822 72.1509 68.2576 72.1509 67.6364C72.1509 67.0227 72.0562 66.4697 71.8668 65.9773C71.6812 65.4811 71.399 65.089 71.0202 64.8011C70.6452 64.5095 70.1736 64.3636 69.6055 64.3636C69.06 64.3636 68.6017 64.5019 68.2305 64.7784C67.8592 65.0511 67.5789 65.4337 67.3895 65.9261C67.2002 66.4148 67.1055 66.9848 67.1055 67.6364ZM78.6027 72.1818C77.8149 72.1818 77.1236 71.9943 76.5289 71.6193C75.938 71.2443 75.4758 70.7197 75.1425 70.0455C74.813 69.3712 74.6482 68.5833 74.6482 67.6818C74.6482 66.7727 74.813 65.9792 75.1425 65.3011C75.4758 64.6231 75.938 64.0966 76.5289 63.7216C77.1236 63.3466 77.8149 63.1591 78.6027 63.1591C79.3906 63.1591 80.08 63.3466 80.6709 63.7216C81.2656 64.0966 81.7277 64.6231 82.0573 65.3011C82.3906 65.9792 82.5573 66.7727 82.5573 67.6818C82.5573 68.5833 82.3906 69.3712 82.0573 70.0455C81.7277 70.7197 81.2656 71.2443 80.6709 71.6193C80.08 71.9943 79.3906 72.1818 78.6027 72.1818ZM78.6027 70.9773C79.2012 70.9773 79.6936 70.8239 80.08 70.517C80.4664 70.2102 80.7524 69.8068 80.938 69.3068C81.1236 68.8068 81.2164 68.2652 81.2164 67.6818C81.2164 67.0985 81.1236 66.5549 80.938 66.0511C80.7524 65.5473 80.4664 65.1402 80.08 64.8295C79.6936 64.5189 79.2012 64.3636 78.6027 64.3636C78.0042 64.3636 77.5118 64.5189 77.1255 64.8295C76.7391 65.1402 76.4531 65.5473 76.2675 66.0511C76.0819 66.5549 75.9891 67.0985 75.9891 67.6818C75.9891 68.2652 76.0819 68.8068 76.2675 69.3068C76.4531 69.8068 76.7391 70.2102 77.1255 70.517C77.5118 70.8239 78.0042 70.9773 78.6027 70.9773ZM88.1441 72V63.2727H95.0078V72H93.6669V64.5227H89.4851V72H88.1441ZM100.522 72.1818C99.7342 72.1818 99.0429 71.9943 98.4482 71.6193C97.8573 71.2443 97.3952 70.7197 97.0619 70.0455C96.7323 69.3712 96.5676 68.5833 96.5676 67.6818C96.5676 66.7727 96.7323 65.9792 97.0619 65.3011C97.3952 64.6231 97.8573 64.0966 98.4482 63.7216C99.0429 63.3466 99.7342 63.1591 100.522 63.1591C101.31 63.1591 101.999 63.3466 102.59 63.7216C103.185 64.0966 103.647 64.6231 103.977 65.3011C104.31 65.9792 104.477 66.7727 104.477 67.6818C104.477 68.5833 104.31 69.3712 103.977 70.0455C103.647 70.7197 103.185 71.2443 102.59 71.6193C101.999 71.9943 101.31 72.1818 100.522 72.1818ZM100.522 70.9773C101.121 70.9773 101.613 70.8239 101.999 70.517C102.386 70.2102 102.672 69.8068 102.857 69.3068C103.043 68.8068 103.136 68.2652 103.136 67.6818C103.136 67.0985 103.043 66.5549 102.857 66.0511C102.672 65.5473 102.386 65.1402 101.999 64.8295C101.613 64.5189 101.121 64.3636 100.522 64.3636C99.9236 64.3636 99.4312 64.5189 99.0448 64.8295C98.6585 65.1402 98.3725 65.5473 98.1869 66.0511C98.0013 66.5549 97.9085 67.0985 97.9085 67.6818C97.9085 68.2652 98.0013 68.8068 98.1869 69.3068C98.3725 69.8068 98.6585 70.2102 99.0448 70.517C99.4312 70.8239 99.9236 70.9773 100.522 70.9773ZM105.139 72L108.684 67.5682L105.184 63.2727H106.775L109.684 67H110.411V63.2727H111.752V67H112.457L115.366 63.2727H116.957L113.48 67.5682L117.002 72H115.389L112.434 68.25H111.752V72H110.411V68.25H109.73L106.752 72H105.139ZM121.007 72.2045C120.454 72.2045 119.952 72.1004 119.501 71.892C119.05 71.6799 118.692 71.375 118.427 70.9773C118.162 70.5758 118.029 70.0909 118.029 69.5227C118.029 69.0227 118.128 68.6174 118.325 68.3068C118.522 67.9924 118.785 67.7462 119.115 67.5682C119.444 67.3902 119.808 67.2576 120.206 67.1705C120.607 67.0795 121.01 67.0076 121.416 66.9545C121.946 66.8864 122.376 66.8352 122.706 66.8011C123.039 66.7633 123.281 66.7008 123.433 66.6136C123.588 66.5265 123.666 66.375 123.666 66.1591V66.1136C123.666 65.553 123.512 65.1174 123.206 64.8068C122.903 64.4962 122.442 64.3409 121.825 64.3409C121.185 64.3409 120.683 64.4811 120.319 64.7614C119.956 65.0417 119.7 65.3409 119.552 65.6591L118.279 65.2045C118.507 64.6742 118.81 64.2614 119.189 63.9659C119.571 63.6667 119.988 63.4583 120.439 63.3409C120.893 63.2197 121.34 63.1591 121.779 63.1591C122.06 63.1591 122.382 63.1932 122.745 63.2614C123.113 63.3258 123.467 63.4602 123.808 63.6648C124.153 63.8693 124.439 64.178 124.666 64.5909C124.893 65.0038 125.007 65.5568 125.007 66.25V72H123.666V70.8182H123.598C123.507 71.0076 123.355 71.2102 123.143 71.4261C122.931 71.642 122.649 71.8258 122.296 71.9773C121.944 72.1288 121.514 72.2045 121.007 72.2045ZM121.211 71C121.742 71 122.189 70.8958 122.552 70.6875C122.92 70.4792 123.196 70.2102 123.382 69.8807C123.571 69.5511 123.666 69.2045 123.666 68.8409V67.6136C123.609 67.6818 123.484 67.7443 123.291 67.8011C123.101 67.8542 122.882 67.9015 122.632 67.9432C122.385 67.9811 122.145 68.0152 121.91 68.0455C121.679 68.072 121.492 68.0947 121.348 68.1136C120.999 68.1591 120.673 68.233 120.37 68.3352C120.071 68.4337 119.829 68.5833 119.643 68.7841C119.461 68.9811 119.37 69.25 119.37 69.5909C119.37 70.0568 119.543 70.4091 119.887 70.6477C120.236 70.8826 120.677 71 121.211 71ZM126.201 72V70.75H126.52C126.781 70.75 126.999 70.6989 127.173 70.5966C127.347 70.4905 127.487 70.3068 127.593 70.0455C127.703 69.7803 127.787 69.4129 127.843 68.9432C127.904 68.4697 127.948 67.8674 127.974 67.1364L128.133 63.2727H133.951V72H132.611V64.5227H129.406L129.27 67.6364C129.239 68.3523 129.175 68.983 129.076 69.5284C128.982 70.0701 128.836 70.5246 128.639 70.892C128.446 71.2595 128.188 71.536 127.866 71.7216C127.544 71.9072 127.141 72 126.656 72H126.201ZM139.477 72.1818C138.689 72.1818 137.998 71.9943 137.403 71.6193C136.812 71.2443 136.35 70.7197 136.017 70.0455C135.687 69.3712 135.523 68.5833 135.523 67.6818C135.523 66.7727 135.687 65.9792 136.017 65.3011C136.35 64.6231 136.812 64.0966 137.403 63.7216C137.998 63.3466 138.689 63.1591 139.477 63.1591C140.265 63.1591 140.954 63.3466 141.545 63.7216C142.14 64.0966 142.602 64.6231 142.932 65.3011C143.265 65.9792 143.432 66.7727 143.432 67.6818C143.432 68.5833 143.265 69.3712 142.932 70.0455C142.602 70.7197 142.14 71.2443 141.545 71.6193C140.954 71.9943 140.265 72.1818 139.477 72.1818ZM139.477 70.9773C140.076 70.9773 140.568 70.8239 140.954 70.517C141.341 70.2102 141.627 69.8068 141.812 69.3068C141.998 68.8068 142.091 68.2652 142.091 67.6818C142.091 67.0985 141.998 66.5549 141.812 66.0511C141.627 65.5473 141.341 65.1402 140.954 64.8295C140.568 64.5189 140.076 64.3636 139.477 64.3636C138.879 64.3636 138.386 64.5189 138 64.8295C137.613 65.1402 137.327 65.5473 137.142 66.0511C136.956 66.5549 136.863 67.0985 136.863 67.6818C136.863 68.2652 136.956 68.8068 137.142 69.3068C137.327 69.8068 137.613 70.2102 138 70.517C138.386 70.8239 138.879 70.9773 139.477 70.9773ZM144.999 72V63.2727H148.567C149.506 63.2727 150.252 63.4848 150.805 63.9091C151.358 64.3333 151.635 64.8939 151.635 65.5909C151.635 66.1212 151.478 66.5322 151.163 66.8239C150.849 67.1117 150.445 67.3068 149.953 67.4091C150.275 67.4545 150.588 67.5682 150.891 67.75C151.197 67.9318 151.451 68.1818 151.652 68.5C151.853 68.8144 151.953 69.2008 151.953 69.6591C151.953 70.1061 151.839 70.5057 151.612 70.858C151.385 71.2102 151.059 71.4886 150.635 71.6932C150.211 71.8977 149.703 72 149.112 72H144.999ZM146.271 70.7727H149.112C149.574 70.7727 149.936 70.6629 150.197 70.4432C150.459 70.2235 150.589 69.9242 150.589 69.5455C150.589 69.0947 150.459 68.7405 150.197 68.483C149.936 68.2216 149.574 68.0909 149.112 68.0909H146.271V70.7727ZM146.271 66.9318H148.567C148.927 66.9318 149.235 66.8826 149.493 66.7841C149.75 66.6818 149.947 66.5379 150.084 66.3523C150.224 66.1629 150.294 65.9394 150.294 65.6818C150.294 65.3144 150.141 65.0265 149.834 64.8182C149.527 64.6061 149.105 64.5 148.567 64.5H146.271V66.9318ZM156.071 72.2045C155.518 72.2045 155.016 72.1004 154.565 71.892C154.115 71.6799 153.757 71.375 153.492 70.9773C153.226 70.5758 153.094 70.0909 153.094 69.5227C153.094 69.0227 153.192 68.6174 153.389 68.3068C153.586 67.9924 153.849 67.7462 154.179 67.5682C154.509 67.3902 154.872 67.2576 155.27 67.1705C155.671 67.0795 156.075 67.0076 156.48 66.9545C157.01 66.8864 157.44 66.8352 157.77 66.8011C158.103 66.7633 158.346 66.7008 158.497 66.6136C158.653 66.5265 158.73 66.375 158.73 66.1591V66.1136C158.73 65.553 158.577 65.1174 158.27 64.8068C157.967 64.4962 157.507 64.3409 156.889 64.3409C156.249 64.3409 155.747 64.4811 155.384 64.7614C155.02 65.0417 154.764 65.3409 154.617 65.6591L153.344 65.2045C153.571 64.6742 153.874 64.2614 154.253 63.9659C154.635 63.6667 155.052 63.4583 155.503 63.3409C155.957 63.2197 156.404 63.1591 156.844 63.1591C157.124 63.1591 157.446 63.1932 157.81 63.2614C158.177 63.3258 158.531 63.4602 158.872 63.6648C159.217 63.8693 159.503 64.178 159.73 64.5909C159.957 65.0038 160.071 65.5568 160.071 66.25V72H158.73V70.8182H158.662C158.571 71.0076 158.42 71.2102 158.207 71.4261C157.995 71.642 157.713 71.8258 157.361 71.9773C157.009 72.1288 156.579 72.2045 156.071 72.2045ZM156.276 71C156.806 71 157.253 70.8958 157.617 70.6875C157.984 70.4792 158.26 70.2102 158.446 69.8807C158.635 69.5511 158.73 69.2045 158.73 68.8409V67.6136C158.673 67.6818 158.548 67.7443 158.355 67.8011C158.166 67.8542 157.946 67.9015 157.696 67.9432C157.45 67.9811 157.209 68.0152 156.974 68.0455C156.743 68.072 156.556 68.0947 156.412 68.1136C156.064 68.1591 155.738 68.233 155.435 68.3352C155.135 68.4337 154.893 68.5833 154.707 68.7841C154.526 68.9811 154.435 69.25 154.435 69.5909C154.435 70.0568 154.607 70.4091 154.952 70.6477C155.3 70.8826 155.742 71 156.276 71ZM160.851 64.5227V63.2727H167.942V64.5227H165.078V72H163.737V64.5227H160.851ZM170.577 66.4318H173.077C174.1 66.4318 174.882 66.6913 175.424 67.2102C175.965 67.7292 176.236 68.3864 176.236 69.1818C176.236 69.7045 176.115 70.1799 175.872 70.608C175.63 71.0322 175.274 71.3712 174.804 71.625C174.335 71.875 173.759 72 173.077 72H169.418V63.2727H170.759V70.75H173.077C173.607 70.75 174.043 70.6098 174.384 70.3295C174.725 70.0492 174.895 69.6894 174.895 69.25C174.895 68.7879 174.725 68.411 174.384 68.1193C174.043 67.8277 173.607 67.6818 173.077 67.6818H170.577V66.4318ZM181.817 72V63.2727H185.385C186.325 63.2727 187.071 63.4848 187.624 63.9091C188.177 64.3333 188.454 64.8939 188.454 65.5909C188.454 66.1212 188.296 66.5322 187.982 66.8239C187.668 67.1117 187.264 67.3068 186.772 67.4091C187.094 67.4545 187.406 67.5682 187.709 67.75C188.016 67.9318 188.27 68.1818 188.471 68.5C188.671 68.8144 188.772 69.2008 188.772 69.6591C188.772 70.1061 188.658 70.5057 188.431 70.858C188.204 71.2102 187.878 71.4886 187.454 71.6932C187.029 71.8977 186.522 72 185.931 72H181.817ZM183.09 70.7727H185.931C186.393 70.7727 186.755 70.6629 187.016 70.4432C187.277 70.2235 187.408 69.9242 187.408 69.5455C187.408 69.0947 187.277 68.7405 187.016 68.483C186.755 68.2216 186.393 68.0909 185.931 68.0909H183.09V70.7727ZM183.09 66.9318H185.385C185.745 66.9318 186.054 66.8826 186.312 66.7841C186.569 66.6818 186.766 66.5379 186.902 66.3523C187.043 66.1629 187.113 65.9394 187.113 65.6818C187.113 65.3144 186.959 65.0265 186.652 64.8182C186.346 64.6061 185.923 64.5 185.385 64.5H183.09V66.9318ZM199.114 70.1818L202.16 63.2727H203.433L199.66 72H198.569L194.864 63.2727H196.114L199.114 70.1818ZM195.683 63.2727V72H194.342V63.2727H195.683ZM202.546 72V63.2727H203.887V72H202.546ZM207.203 70.0227L211.407 63.2727H212.953V72H211.612V65.25L207.43 72H205.862V63.2727H207.203V70.0227ZM214.929 75.2727V63.2727H216.224V64.6591H216.383C216.482 64.5076 216.618 64.3144 216.792 64.0795C216.97 63.8409 217.224 63.6288 217.554 63.4432C217.887 63.2538 218.338 63.1591 218.906 63.1591C219.641 63.1591 220.288 63.3428 220.849 63.7102C221.41 64.0777 221.847 64.5985 222.161 65.2727C222.476 65.947 222.633 66.7424 222.633 67.6591C222.633 68.5833 222.476 69.3845 222.161 70.0625C221.847 70.7367 221.411 71.2595 220.855 71.6307C220.298 71.9981 219.656 72.1818 218.929 72.1818C218.368 72.1818 217.919 72.089 217.582 71.9034C217.245 71.714 216.985 71.5 216.804 71.2614C216.622 71.0189 216.482 70.8182 216.383 70.6591H216.269V75.2727H214.929ZM216.247 67.6364C216.247 68.2955 216.343 68.8769 216.536 69.3807C216.73 69.8807 217.012 70.2727 217.383 70.5568C217.754 70.8371 218.209 70.9773 218.747 70.9773C219.307 70.9773 219.775 70.8295 220.15 70.5341C220.529 70.2348 220.813 69.8333 221.002 69.3295C221.196 68.822 221.292 68.2576 221.292 67.6364C221.292 67.0227 221.197 66.4697 221.008 65.9773C220.822 65.4811 220.54 65.089 220.161 64.8011C219.786 64.5095 219.315 64.3636 218.747 64.3636C218.201 64.3636 217.743 64.5019 217.372 64.7784C217 65.0511 216.72 65.4337 216.531 65.9261C216.341 66.4148 216.247 66.9848 216.247 67.6364ZM36.2273 91V82.2727H39.7955C40.7348 82.2727 41.4811 82.4848 42.0341 82.9091C42.5871 83.3333 42.8636 83.8939 42.8636 84.5909C42.8636 85.1212 42.7064 85.5322 42.392 85.8239C42.0777 86.1117 41.6742 86.3068 41.1818 86.4091C41.5038 86.4545 41.8163 86.5682 42.1193 86.75C42.4261 86.9318 42.6799 87.1818 42.8807 87.5C43.0814 87.8144 43.1818 88.2008 43.1818 88.6591C43.1818 89.1061 43.0682 89.5057 42.8409 89.858C42.6136 90.2102 42.2879 90.4886 41.8636 90.6932C41.4394 90.8977 40.9318 91 40.3409 91H36.2273ZM37.5 89.7727H40.3409C40.803 89.7727 41.1648 89.6629 41.4261 89.4432C41.6875 89.2235 41.8182 88.9242 41.8182 88.5455C41.8182 88.0947 41.6875 87.7405 41.4261 87.483C41.1648 87.2216 40.803 87.0909 40.3409 87.0909H37.5V89.7727ZM37.5 85.9318H39.7955C40.1553 85.9318 40.464 85.8826 40.7216 85.7841C40.9792 85.6818 41.1761 85.5379 41.3125 85.3523C41.4527 85.1629 41.5227 84.9394 41.5227 84.6818C41.5227 84.3144 41.3693 84.0265 41.0625 83.8182C40.7557 83.6061 40.3333 83.5 39.7955 83.5H37.5V85.9318ZM45.8907 85.4318H48.3907C49.4135 85.4318 50.1957 85.6913 50.7373 86.2102C51.279 86.7292 51.5498 87.3864 51.5498 88.1818C51.5498 88.7045 51.4286 89.1799 51.1862 89.608C50.9438 90.0322 50.5877 90.3712 50.118 90.625C49.6483 90.875 49.0726 91 48.3907 91H44.7316V82.2727H46.0726V89.75H48.3907C48.921 89.75 49.3566 89.6098 49.6976 89.3295C50.0385 89.0492 50.2089 88.6894 50.2089 88.25C50.2089 87.7879 50.0385 87.411 49.6976 87.1193C49.3566 86.8277 48.921 86.6818 48.3907 86.6818H45.8907V85.4318ZM52.9362 91V82.2727H54.2771V91H52.9362ZM59.7971 91.1818C58.9789 91.1818 58.2744 90.9886 57.6835 90.6023C57.0926 90.2159 56.638 89.6837 56.3198 89.0057C56.0016 88.3277 55.8426 87.553 55.8426 86.6818C55.8426 85.7955 56.0054 85.0133 56.3312 84.3352C56.6607 83.6534 57.1191 83.1212 57.7062 82.7386C58.2971 82.3523 58.9865 82.1591 59.7744 82.1591C60.388 82.1591 60.941 82.2727 61.4335 82.5C61.9259 82.7273 62.3293 83.0455 62.6437 83.4545C62.9581 83.8636 63.1532 84.3409 63.2289 84.8864H61.888C61.7857 84.4886 61.5585 84.1364 61.2062 83.8295C60.8577 83.5189 60.388 83.3636 59.7971 83.3636C59.2744 83.3636 58.816 83.5 58.4221 83.7727C58.032 84.0417 57.727 84.4223 57.5073 84.9148C57.2914 85.4034 57.1835 85.9773 57.1835 86.6364C57.1835 87.3106 57.2895 87.8977 57.5016 88.3977C57.7176 88.8977 58.0206 89.286 58.4107 89.5625C58.8047 89.839 59.2668 89.9773 59.7971 89.9773C60.1456 89.9773 60.4619 89.9167 60.746 89.7955C61.0301 89.6742 61.2706 89.5 61.4676 89.2727C61.6645 89.0455 61.8047 88.7727 61.888 88.4545H63.2289C63.1532 88.9697 62.9657 89.4337 62.6664 89.8466C62.371 90.2557 61.9789 90.5814 61.4903 90.8239C61.0054 91.0625 60.441 91.1818 59.7971 91.1818ZM68.2546 91.1818C67.4667 91.1818 66.7754 90.9943 66.1807 90.6193C65.5898 90.2443 65.1277 89.7197 64.7944 89.0455C64.4648 88.3712 64.3001 87.5833 64.3001 86.6818C64.3001 85.7727 64.4648 84.9792 64.7944 84.3011C65.1277 83.6231 65.5898 83.0966 66.1807 82.7216C66.7754 82.3466 67.4667 82.1591 68.2546 82.1591C69.0425 82.1591 69.7319 82.3466 70.3228 82.7216C70.9175 83.0966 71.3796 83.6231 71.7091 84.3011C72.0425 84.9792 72.2091 85.7727 72.2091 86.6818C72.2091 87.5833 72.0425 88.3712 71.7091 89.0455C71.3796 89.7197 70.9175 90.2443 70.3228 90.6193C69.7319 90.9943 69.0425 91.1818 68.2546 91.1818ZM68.2546 89.9773C68.8531 89.9773 69.3455 89.8239 69.7319 89.517C70.1182 89.2102 70.4042 88.8068 70.5898 88.3068C70.7754 87.8068 70.8682 87.2652 70.8682 86.6818C70.8682 86.0985 70.7754 85.5549 70.5898 85.0511C70.4042 84.5473 70.1182 84.1402 69.7319 83.8295C69.3455 83.5189 68.8531 83.3636 68.2546 83.3636C67.6561 83.3636 67.1637 83.5189 66.7773 83.8295C66.391 84.1402 66.105 84.5473 65.9194 85.0511C65.7338 85.5549 65.641 86.0985 65.641 86.6818C65.641 87.2652 65.7338 87.8068 65.9194 88.3068C66.105 88.8068 66.391 89.2102 66.7773 89.517C67.1637 89.8239 67.6561 89.9773 68.2546 89.9773ZM73.776 91V82.2727H75.1169V86.0682H76.0033L79.1397 82.2727H80.8669L77.3442 86.4773L80.9124 91H79.1851L76.3215 87.3182H75.1169V91H73.776ZM85.0759 91.1818C84.288 91.1818 83.5967 90.9943 83.002 90.6193C82.4111 90.2443 81.949 89.7197 81.6156 89.0455C81.2861 88.3712 81.1213 87.5833 81.1213 86.6818C81.1213 85.7727 81.2861 84.9792 81.6156 84.3011C81.949 83.6231 82.4111 83.0966 83.002 82.7216C83.5967 82.3466 84.288 82.1591 85.0759 82.1591C85.8637 82.1591 86.5531 82.3466 87.144 82.7216C87.7387 83.0966 88.2009 83.6231 88.5304 84.3011C88.8637 84.9792 89.0304 85.7727 89.0304 86.6818C89.0304 87.5833 88.8637 88.3712 88.5304 89.0455C88.2009 89.7197 87.7387 90.2443 87.144 90.6193C86.5531 90.9943 85.8637 91.1818 85.0759 91.1818ZM85.0759 89.9773C85.6743 89.9773 86.1668 89.8239 86.5531 89.517C86.9395 89.2102 87.2255 88.8068 87.4111 88.3068C87.5967 87.8068 87.6895 87.2652 87.6895 86.6818C87.6895 86.0985 87.5967 85.5549 87.4111 85.0511C87.2255 84.5473 86.9395 84.1402 86.5531 83.8295C86.1668 83.5189 85.6743 83.3636 85.0759 83.3636C84.4774 83.3636 83.9849 83.5189 83.5986 83.8295C83.2122 84.1402 82.9262 84.5473 82.7406 85.0511C82.555 85.5549 82.4622 86.0985 82.4622 86.6818C82.4622 87.2652 82.555 87.8068 82.7406 88.3068C82.9262 88.8068 83.2122 89.2102 83.5986 89.517C83.9849 89.8239 84.4774 89.9773 85.0759 89.9773ZM90.5973 91V82.2727H91.9382V86.0682H92.8245L95.9609 82.2727H97.6882L94.1655 86.4773L97.7336 91H96.0064L93.1427 87.3182H91.9382V91H90.5973ZM101.279 91.2045C100.726 91.2045 100.224 91.1004 99.7735 90.892C99.3228 90.6799 98.9648 90.375 98.6997 89.9773C98.4345 89.5758 98.3019 89.0909 98.3019 88.5227C98.3019 88.0227 98.4004 87.6174 98.5974 87.3068C98.7944 86.9924 99.0576 86.7462 99.3872 86.5682C99.7167 86.3902 100.08 86.2576 100.478 86.1705C100.88 86.0795 101.283 86.0076 101.688 85.9545C102.219 85.8864 102.649 85.8352 102.978 85.8011C103.311 85.7633 103.554 85.7008 103.705 85.6136C103.861 85.5265 103.938 85.375 103.938 85.1591V85.1136C103.938 84.553 103.785 84.1174 103.478 83.8068C103.175 83.4962 102.715 83.3409 102.097 83.3409C101.457 83.3409 100.955 83.4811 100.592 83.7614C100.228 84.0417 99.9724 84.3409 99.8247 84.6591L98.5519 84.2045C98.7792 83.6742 99.0822 83.2614 99.461 82.9659C99.8436 82.6667 100.26 82.4583 100.711 82.3409C101.166 82.2197 101.613 82.1591 102.052 82.1591C102.332 82.1591 102.654 82.1932 103.018 82.2614C103.385 82.3258 103.739 82.4602 104.08 82.6648C104.425 82.8693 104.711 83.178 104.938 83.5909C105.166 84.0038 105.279 84.5568 105.279 85.25V91H103.938V89.8182H103.87C103.779 90.0076 103.628 90.2102 103.416 90.4261C103.203 90.642 102.921 90.8258 102.569 90.9773C102.217 91.1288 101.787 91.2045 101.279 91.2045ZM101.484 90C102.014 90 102.461 89.8958 102.825 89.6875C103.192 89.4792 103.469 89.2102 103.654 88.8807C103.844 88.5511 103.938 88.2045 103.938 87.8409V86.6136C103.881 86.6818 103.756 86.7443 103.563 86.8011C103.374 86.8542 103.154 86.9015 102.904 86.9432C102.658 86.9811 102.417 87.0152 102.183 87.0455C101.952 87.072 101.764 87.0947 101.62 87.1136C101.272 87.1591 100.946 87.233 100.643 87.3352C100.344 87.4337 100.101 87.5833 99.9156 87.7841C99.7337 87.9811 99.6428 88.25 99.6428 88.5909C99.6428 89.0568 99.8152 89.4091 100.16 89.6477C100.508 89.8826 100.95 90 101.484 90ZM113.974 82.2727V91H112.633V82.2727H113.974ZM113.451 86.4318V87.6818C113.148 87.7955 112.847 87.8958 112.548 87.983C112.249 88.0663 111.934 88.1326 111.605 88.1818C111.275 88.2273 110.913 88.25 110.519 88.25C109.531 88.25 108.737 87.983 108.139 87.4489C107.544 86.9148 107.247 86.1136 107.247 85.0455V82.25H108.588V85.0455C108.588 85.4924 108.673 85.8598 108.843 86.1477C109.014 86.4356 109.245 86.6496 109.536 86.7898C109.828 86.9299 110.156 87 110.519 87C111.088 87 111.601 86.9489 112.059 86.8466C112.521 86.7405 112.985 86.6023 113.451 86.4318ZM119.613 91.1818C118.772 91.1818 118.047 90.9962 117.437 90.625C116.831 90.25 116.363 89.7273 116.034 89.0568C115.708 88.3826 115.545 87.5985 115.545 86.7045C115.545 85.8106 115.708 85.0227 116.034 84.3409C116.363 83.6553 116.822 83.1212 117.409 82.7386C118 82.3523 118.689 82.1591 119.477 82.1591C119.931 82.1591 120.38 82.2348 120.823 82.3864C121.267 82.5379 121.67 82.7841 122.034 83.125C122.397 83.4621 122.687 83.9091 122.903 84.4659C123.119 85.0227 123.227 85.7083 123.227 86.5227V87.0909H116.5V85.9318H121.863C121.863 85.4394 121.765 85 121.568 84.6136C121.375 84.2273 121.098 83.9223 120.738 83.6989C120.382 83.4754 119.962 83.3636 119.477 83.3636C118.943 83.3636 118.481 83.4962 118.091 83.7614C117.704 84.0227 117.407 84.3636 117.198 84.7841C116.99 85.2045 116.886 85.6553 116.886 86.1364V86.9091C116.886 87.5682 117 88.1269 117.227 88.5852C117.458 89.0398 117.778 89.3864 118.187 89.625C118.596 89.8598 119.072 89.9773 119.613 89.9773C119.966 89.9773 120.284 89.928 120.568 89.8295C120.856 89.7273 121.104 89.5758 121.312 89.375C121.52 89.1705 121.681 88.9167 121.795 88.6136L123.091 88.9773C122.954 89.4167 122.725 89.803 122.403 90.1364C122.081 90.4659 121.683 90.7235 121.21 90.9091C120.736 91.0909 120.204 91.1818 119.613 91.1818ZM128.332 91.1818C127.514 91.1818 126.809 90.9886 126.218 90.6023C125.628 90.2159 125.173 89.6837 124.855 89.0057C124.537 88.3277 124.378 87.553 124.378 86.6818C124.378 85.7955 124.54 85.0133 124.866 84.3352C125.196 83.6534 125.654 83.1212 126.241 82.7386C126.832 82.3523 127.521 82.1591 128.309 82.1591C128.923 82.1591 129.476 82.2727 129.968 82.5C130.461 82.7273 130.864 83.0455 131.179 83.4545C131.493 83.8636 131.688 84.3409 131.764 84.8864H130.423C130.321 84.4886 130.093 84.1364 129.741 83.8295C129.393 83.5189 128.923 83.3636 128.332 83.3636C127.809 83.3636 127.351 83.5 126.957 83.7727C126.567 84.0417 126.262 84.4223 126.042 84.9148C125.826 85.4034 125.718 85.9773 125.718 86.6364C125.718 87.3106 125.825 87.8977 126.037 88.3977C126.253 88.8977 126.556 89.286 126.946 89.5625C127.34 89.839 127.802 89.9773 128.332 89.9773C128.681 89.9773 128.997 89.9167 129.281 89.7955C129.565 89.6742 129.806 89.5 130.003 89.2727C130.2 89.0455 130.34 88.7727 130.423 88.4545H131.764C131.688 88.9697 131.501 89.4337 131.201 89.8466C130.906 90.2557 130.514 90.5814 130.025 90.8239C129.54 91.0625 128.976 91.1818 128.332 91.1818ZM132.557 83.5227V82.2727H139.648V83.5227H136.784V91H135.443V83.5227H132.557ZM141.124 91V82.2727H144.692C145.631 82.2727 146.377 82.4848 146.93 82.9091C147.483 83.3333 147.76 83.8939 147.76 84.5909C147.76 85.1212 147.603 85.5322 147.288 85.8239C146.974 86.1117 146.57 86.3068 146.078 86.4091C146.4 86.4545 146.713 86.5682 147.016 86.75C147.322 86.9318 147.576 87.1818 147.777 87.5C147.978 87.8144 148.078 88.2008 148.078 88.6591C148.078 89.1061 147.964 89.5057 147.737 89.858C147.51 90.2102 147.184 90.4886 146.76 90.6932C146.336 90.8977 145.828 91 145.237 91H141.124ZM142.396 89.7727H145.237C145.699 89.7727 146.061 89.6629 146.322 89.4432C146.584 89.2235 146.714 88.9242 146.714 88.5455C146.714 88.0947 146.584 87.7405 146.322 87.483C146.061 87.2216 145.699 87.0909 145.237 87.0909H142.396V89.7727ZM142.396 85.9318H144.692C145.052 85.9318 145.36 85.8826 145.618 85.7841C145.875 85.6818 146.072 85.5379 146.209 85.3523C146.349 85.1629 146.419 84.9394 146.419 84.6818C146.419 84.3144 146.266 84.0265 145.959 83.8182C145.652 83.6061 145.23 83.5 144.692 83.5H142.396V85.9318ZM153.287 91.1818C152.446 91.1818 151.721 90.9962 151.111 90.625C150.505 90.25 150.037 89.7273 149.707 89.0568C149.382 88.3826 149.219 87.5985 149.219 86.7045C149.219 85.8106 149.382 85.0227 149.707 84.3409C150.037 83.6553 150.495 83.1212 151.082 82.7386C151.673 82.3523 152.363 82.1591 153.151 82.1591C153.605 82.1591 154.054 82.2348 154.497 82.3864C154.94 82.5379 155.344 82.7841 155.707 83.125C156.071 83.4621 156.361 83.9091 156.577 84.4659C156.793 85.0227 156.901 85.7083 156.901 86.5227V87.0909H150.173V85.9318H155.537C155.537 85.4394 155.439 85 155.242 84.6136C155.048 84.2273 154.772 83.9223 154.412 83.6989C154.056 83.4754 153.635 83.3636 153.151 83.3636C152.617 83.3636 152.154 83.4962 151.764 83.7614C151.378 84.0227 151.081 84.3636 150.872 84.7841C150.664 85.2045 150.56 85.6553 150.56 86.1364V86.9091C150.56 87.5682 150.673 88.1269 150.901 88.5852C151.132 89.0398 151.452 89.3864 151.861 89.625C152.27 89.8598 152.745 89.9773 153.287 89.9773C153.639 89.9773 153.957 89.928 154.242 89.8295C154.529 89.7273 154.778 89.5758 154.986 89.375C155.194 89.1705 155.355 88.9167 155.469 88.6136L156.764 88.9773C156.628 89.4167 156.399 89.803 156.077 90.1364C155.755 90.4659 155.357 90.7235 154.884 90.9091C154.41 91.0909 153.878 91.1818 153.287 91.1818ZM164.301 86.0227V87.2727H159.483V86.0227H164.301ZM159.801 82.2727V91H158.46V82.2727H159.801ZM165.324 82.2727V91H163.983V82.2727H165.324ZM173.134 86.0227V87.2727H168.316V86.0227H173.134ZM168.634 82.2727V91H167.293V82.2727H168.634ZM174.157 82.2727V91H172.816V82.2727H174.157ZM177.284 85.4318H179.784C180.807 85.4318 181.589 85.6913 182.131 86.2102C182.673 86.7292 182.944 87.3864 182.944 88.1818C182.944 88.7045 182.822 89.1799 182.58 89.608C182.338 90.0322 181.981 90.3712 181.512 90.625C181.042 90.875 180.466 91 179.784 91H176.125V82.2727H177.466V89.75H179.784C180.315 89.75 180.75 89.6098 181.091 89.3295C181.432 89.0492 181.603 88.6894 181.603 88.25C181.603 87.7879 181.432 87.411 181.091 87.1193C180.75 86.8277 180.315 86.6818 179.784 86.6818H177.284V85.4318ZM184.33 91V82.2727H185.671V91H184.33ZM188.645 82.2727L190.736 85.8409L192.827 82.2727H194.373L191.554 86.6364L194.373 91H192.827L190.736 87.6136L188.645 91H187.1L189.873 86.6364L187.1 82.2727H188.645ZM199.826 91V82.2727H206.69V91H205.349V83.5227H201.167V91H199.826ZM211.227 91.2045C210.674 91.2045 210.172 91.1004 209.721 90.892C209.27 90.6799 208.912 90.375 208.647 89.9773C208.382 89.5758 208.249 89.0909 208.249 88.5227C208.249 88.0227 208.348 87.6174 208.545 87.3068C208.742 86.9924 209.005 86.7462 209.335 86.5682C209.664 86.3902 210.028 86.2576 210.426 86.1705C210.827 86.0795 211.23 86.0076 211.636 85.9545C212.166 85.8864 212.596 85.8352 212.926 85.8011C213.259 85.7633 213.501 85.7008 213.653 85.6136C213.808 85.5265 213.886 85.375 213.886 85.1591V85.1136C213.886 84.553 213.732 84.1174 213.426 83.8068C213.123 83.4962 212.662 83.3409 212.045 83.3409C211.405 83.3409 210.903 83.4811 210.539 83.7614C210.176 84.0417 209.92 84.3409 209.772 84.6591L208.499 84.2045C208.727 83.6742 209.03 83.2614 209.409 82.9659C209.791 82.6667 210.208 82.4583 210.659 82.3409C211.113 82.2197 211.56 82.1591 211.999 82.1591C212.28 82.1591 212.602 82.1932 212.965 82.2614C213.333 82.3258 213.687 82.4602 214.028 82.6648C214.373 82.8693 214.659 83.178 214.886 83.5909C215.113 84.0038 215.227 84.5568 215.227 85.25V91H213.886V89.8182H213.818C213.727 90.0076 213.575 90.2102 213.363 90.4261C213.151 90.642 212.869 90.8258 212.516 90.9773C212.164 91.1288 211.734 91.2045 211.227 91.2045ZM211.431 90C211.962 90 212.409 89.8958 212.772 89.6875C213.14 89.4792 213.416 89.2102 213.602 88.8807C213.791 88.5511 213.886 88.2045 213.886 87.8409V86.6136C213.829 86.6818 213.704 86.7443 213.511 86.8011C213.321 86.8542 213.102 86.9015 212.852 86.9432C212.605 86.9811 212.365 87.0152 212.13 87.0455C211.899 87.072 211.712 87.0947 211.568 87.1136C211.219 87.1591 210.893 87.233 210.59 87.3352C210.291 87.4337 210.049 87.5833 209.863 87.7841C209.681 87.9811 209.59 88.25 209.59 88.5909C209.59 89.0568 209.763 89.4091 210.107 89.6477C210.456 89.8826 210.897 90 211.431 90ZM217.194 94.2727V82.2727H218.49V83.6591H218.649C218.747 83.5076 218.884 83.3144 219.058 83.0795C219.236 82.8409 219.49 82.6288 219.819 82.4432C220.152 82.2538 220.603 82.1591 221.171 82.1591C221.906 82.1591 222.554 82.3428 223.115 82.7102C223.675 83.0777 224.113 83.5985 224.427 84.2727C224.741 84.947 224.899 85.7424 224.899 86.6591C224.899 87.5833 224.741 88.3845 224.427 89.0625C224.113 89.7367 223.677 90.2595 223.12 90.6307C222.563 90.9981 221.921 91.1818 221.194 91.1818C220.634 91.1818 220.185 91.089 219.848 90.9034C219.51 90.714 219.251 90.5 219.069 90.2614C218.887 90.0189 218.747 89.8182 218.649 89.6591H218.535V94.2727H217.194ZM218.512 86.6364C218.512 87.2955 218.609 87.8769 218.802 88.3807C218.995 88.8807 219.277 89.2727 219.649 89.5568C220.02 89.8371 220.474 89.9773 221.012 89.9773C221.573 89.9773 222.041 89.8295 222.416 89.5341C222.795 89.2348 223.079 88.8333 223.268 88.3295C223.461 87.822 223.558 87.2576 223.558 86.6364C223.558 86.0227 223.463 85.4697 223.274 84.9773C223.088 84.4811 222.806 84.089 222.427 83.8011C222.052 83.5095 221.581 83.3636 221.012 83.3636C220.467 83.3636 220.009 83.5019 219.637 83.7784C219.266 84.0511 218.986 84.4337 218.796 84.9261C218.607 85.4148 218.512 85.9848 218.512 86.6364ZM230.01 93.9773V79.3636H231.351V93.9773H230.01ZM230.01 91.1818C229.419 91.1818 228.881 91.0758 228.396 90.8636C227.911 90.6477 227.494 90.3428 227.146 89.9489C226.797 89.5511 226.529 89.0758 226.339 88.5227C226.15 87.9697 226.055 87.3561 226.055 86.6818C226.055 86 226.15 85.3826 226.339 84.8295C226.529 84.2727 226.797 83.7955 227.146 83.3977C227.494 83 227.911 82.6951 228.396 82.483C228.881 82.267 229.419 82.1591 230.01 82.1591H230.419V91.1818H230.01ZM230.01 89.9773H230.237V83.3636H230.01C229.563 83.3636 229.174 83.4545 228.845 83.6364C228.515 83.8144 228.243 84.0587 228.027 84.3693C227.815 84.6761 227.655 85.0284 227.549 85.4261C227.447 85.8239 227.396 86.2424 227.396 86.6818C227.396 87.2652 227.489 87.8068 227.674 88.3068C227.86 88.8068 228.146 89.2102 228.532 89.517C228.919 89.8239 229.411 89.9773 230.01 89.9773ZM231.351 91.1818H230.941V82.1591H231.351C231.941 82.1591 232.479 82.267 232.964 82.483C233.449 82.6951 233.866 83 234.214 83.3977C234.563 83.7955 234.832 84.2727 235.021 84.8295C235.21 85.3826 235.305 86 235.305 86.6818C235.305 87.3561 235.21 87.9697 235.021 88.5227C234.832 89.0758 234.563 89.5511 234.214 89.9489C233.866 90.3428 233.449 90.6477 232.964 90.8636C232.479 91.0758 231.941 91.1818 231.351 91.1818ZM231.351 89.9773C231.801 89.9773 232.19 89.8902 232.515 89.7159C232.845 89.5379 233.116 89.2955 233.328 88.9886C233.544 88.678 233.703 88.3258 233.805 87.9318C233.911 87.5341 233.964 87.1174 233.964 86.6818C233.964 86.0985 233.871 85.5549 233.686 85.0511C233.5 84.5473 233.214 84.1402 232.828 83.8295C232.441 83.5189 231.949 83.3636 231.351 83.3636H231.123V89.9773H231.351ZM241.057 86.0909V87.3409H236.443V86.0909H241.057ZM237.579 82.2727V91H236.238V82.2727H237.579ZM243.738 91.1818C242.951 91.1818 242.259 90.9943 241.665 90.6193C241.074 90.2443 240.612 89.7197 240.278 89.0455C239.949 88.3712 239.784 87.5833 239.784 86.6818C239.784 85.7727 239.949 84.9792 240.278 84.3011C240.612 83.6231 241.074 83.0966 241.665 82.7216C242.259 82.3466 242.951 82.1591 243.738 82.1591C244.526 82.1591 245.216 82.3466 245.807 82.7216C246.401 83.0966 246.863 83.6231 247.193 84.3011C247.526 84.9792 247.693 85.7727 247.693 86.6818C247.693 87.5833 247.526 88.3712 247.193 89.0455C246.863 89.7197 246.401 90.2443 245.807 90.6193C245.216 90.9943 244.526 91.1818 243.738 91.1818ZM243.738 89.9773C244.337 89.9773 244.829 89.8239 245.216 89.517C245.602 89.2102 245.888 88.8068 246.074 88.3068C246.259 87.8068 246.352 87.2652 246.352 86.6818C246.352 86.0985 246.259 85.5549 246.074 85.0511C245.888 84.5473 245.602 84.1402 245.216 83.8295C244.829 83.5189 244.337 83.3636 243.738 83.3636C243.14 83.3636 242.648 83.5189 242.261 83.8295C241.875 84.1402 241.589 84.5473 241.403 85.0511C241.218 85.5549 241.125 86.0985 241.125 86.6818C241.125 87.2652 241.218 87.8068 241.403 88.3068C241.589 88.8068 241.875 89.2102 242.261 89.517C242.648 89.8239 243.14 89.9773 243.738 89.9773ZM254.167 89.1818L257.213 82.2727H258.486L254.713 91H253.622L249.917 82.2727H251.167L254.167 89.1818ZM250.736 82.2727V91H249.395V82.2727H250.736ZM257.599 91V82.2727H258.94V91H257.599ZM264.46 91.1818C263.672 91.1818 262.981 90.9943 262.386 90.6193C261.795 90.2443 261.333 89.7197 261 89.0455C260.67 88.3712 260.506 87.5833 260.506 86.6818C260.506 85.7727 260.67 84.9792 261 84.3011C261.333 83.6231 261.795 83.0966 262.386 82.7216C262.981 82.3466 263.672 82.1591 264.46 82.1591C265.248 82.1591 265.938 82.3466 266.528 82.7216C267.123 83.0966 267.585 83.6231 267.915 84.3011C268.248 84.9792 268.415 85.7727 268.415 86.6818C268.415 87.5833 268.248 88.3712 267.915 89.0455C267.585 89.7197 267.123 90.2443 266.528 90.6193C265.938 90.9943 265.248 91.1818 264.46 91.1818ZM264.46 89.9773C265.059 89.9773 265.551 89.8239 265.938 89.517C266.324 89.2102 266.61 88.8068 266.795 88.3068C266.981 87.8068 267.074 87.2652 267.074 86.6818C267.074 86.0985 266.981 85.5549 266.795 85.0511C266.61 84.5473 266.324 84.1402 265.938 83.8295C265.551 83.5189 265.059 83.3636 264.46 83.3636C263.862 83.3636 263.369 83.5189 262.983 83.8295C262.597 84.1402 262.311 84.5473 262.125 85.0511C261.939 85.5549 261.847 86.0985 261.847 86.6818C261.847 87.2652 261.939 87.8068 262.125 88.3068C262.311 88.8068 262.597 89.2102 262.983 89.517C263.369 89.8239 263.862 89.9773 264.46 89.9773ZM269.982 91V82.2727H273.55C274.489 82.2727 275.235 82.4848 275.788 82.9091C276.342 83.3333 276.618 83.8939 276.618 84.5909C276.618 85.1212 276.461 85.5322 276.146 85.8239C275.832 86.1117 275.429 86.3068 274.936 86.4091C275.258 86.4545 275.571 86.5682 275.874 86.75C276.181 86.9318 276.434 87.1818 276.635 87.5C276.836 87.8144 276.936 88.2008 276.936 88.6591C276.936 89.1061 276.823 89.5057 276.595 89.858C276.368 90.2102 276.042 90.4886 275.618 90.6932C275.194 90.8977 274.686 91 274.095 91H269.982ZM271.254 89.7727H274.095C274.557 89.7727 274.919 89.6629 275.181 89.4432C275.442 89.2235 275.573 88.9242 275.573 88.5455C275.573 88.0947 275.442 87.7405 275.181 87.483C274.919 87.2216 274.557 87.0909 274.095 87.0909H271.254V89.7727ZM271.254 85.9318H273.55C273.91 85.9318 274.218 85.8826 274.476 85.7841C274.734 85.6818 274.931 85.5379 275.067 85.3523C275.207 85.1629 275.277 84.9394 275.277 84.6818C275.277 84.3144 275.124 84.0265 274.817 83.8182C274.51 83.6061 274.088 83.5 273.55 83.5H271.254V85.9318Z" fill="white"/>
<g id="Repeat group 1_inner" data-figma-trr="r10u3-0f">
<path d="M345.85 62.9285C345.85 62.4472 346.397 62.0571 347.07 62.0571C347.744 62.0571 348.29 62.4472 348.29 62.9285V67.6922C348.29 68.1735 347.744 68.5636 347.07 68.5636C346.397 68.5636 345.85 68.1735 345.85 67.6922V62.9285Z" fill="white"/>
</g>
<use xlink:href="#Repeat%20group%201_inner" transform="translate(110.41 -189.666) rotate(36)"/>
<use xlink:href="#Repeat%20group%201_inner" transform="translate(311.216 -278.211) rotate(72)"/>
<use xlink:href="#Repeat%20group%201_inner" transform="translate(525.717 -231.815) rotate(108)"/>
<use xlink:href="#Repeat%20group%201_inner" transform="translate(671.981 -68.1996) rotate(144)"/>
<use xlink:href="#Repeat%20group%201_inner" transform="translate(694.141 150.14) rotate(-180)"/>
<use xlink:href="#Repeat%20group%201_inner" transform="translate(583.731 339.806) rotate(-144)"/>
<use xlink:href="#Repeat%20group%201_inner" transform="translate(382.925 428.352) rotate(-108)"/>
<use xlink:href="#Repeat%20group%201_inner" transform="translate(168.424 381.956) rotate(-72)"/>
<use xlink:href="#Repeat%20group%201_inner" transform="translate(22.1593 218.34) rotate(-36)"/>
<path d="M381.48 72.0233C381.413 71.403 381.134 70.92 380.642 70.5744C380.154 70.2287 379.519 70.0559 378.738 70.0559C378.189 70.0559 377.718 70.1388 377.325 70.3045C376.932 70.4702 376.631 70.6951 376.423 70.9792C376.214 71.2633 376.108 71.5876 376.103 71.9522C376.103 72.2553 376.172 72.518 376.309 72.7406C376.451 72.9631 376.643 73.1525 376.884 73.3088C377.126 73.4603 377.393 73.5881 377.687 73.6923C377.981 73.7965 378.277 73.884 378.575 73.9551L379.938 74.296C380.488 74.4238 381.016 74.5966 381.522 74.8144C382.034 75.0323 382.491 75.3069 382.893 75.6383C383.3 75.9698 383.622 76.3698 383.859 76.8386C384.096 77.3073 384.214 77.8566 384.214 78.4863C384.214 79.3386 383.996 80.0891 383.561 80.7377C383.125 81.3817 382.495 81.8859 381.671 82.2505C380.852 82.6104 379.86 82.7903 378.696 82.7903C377.564 82.7903 376.581 82.6151 375.748 82.2647C374.919 81.9144 374.271 81.403 373.802 80.7306C373.338 80.0583 373.087 79.2392 373.049 78.2733H375.642C375.679 78.7799 375.836 79.2013 376.11 79.5375C376.385 79.8736 376.742 80.1246 377.183 80.2903C377.628 80.456 378.125 80.5389 378.674 80.5389C379.247 80.5389 379.749 80.4537 380.18 80.2832C380.616 80.108 380.956 79.8665 381.203 79.5588C381.449 79.2463 381.574 78.8817 381.579 78.465C381.574 78.0862 381.463 77.7737 381.245 77.5275C381.027 77.2766 380.722 77.0682 380.329 76.9025C379.941 76.7321 379.486 76.5805 378.965 76.448L377.311 76.0218C376.113 75.7141 375.166 75.2477 374.47 74.6227C373.778 73.993 373.433 73.1573 373.433 72.1156C373.433 71.2586 373.665 70.5081 374.129 69.8642C374.598 69.2202 375.234 68.7207 376.039 68.3656C376.844 68.0057 377.756 67.8258 378.774 67.8258C379.806 67.8258 380.71 68.0057 381.487 68.3656C382.268 68.7207 382.881 69.2155 383.326 69.85C383.771 70.4797 384.001 71.2041 384.015 72.0233H381.48ZM391.208 82.7832C390.119 82.7832 389.184 82.5441 388.403 82.0659C387.626 81.5876 387.027 80.9271 386.606 80.0843C386.189 79.2368 385.981 78.2614 385.981 77.1582C385.981 76.0502 386.194 75.0725 386.62 74.225C387.046 73.3727 387.647 72.7098 388.424 72.2363C389.205 71.7581 390.128 71.519 391.194 71.519C392.079 71.519 392.863 71.6823 393.545 72.009C394.231 72.331 394.778 72.7879 395.185 73.3798C395.592 73.9669 395.824 74.6535 395.881 75.4394H393.424C393.324 74.9139 393.088 74.4759 392.714 74.1255C392.344 73.7704 391.85 73.5929 391.229 73.5929C390.704 73.5929 390.242 73.7349 389.844 74.019C389.447 74.2983 389.136 74.7008 388.914 75.2264C388.696 75.7519 388.587 76.3817 388.587 77.1156C388.587 77.859 388.696 78.4982 388.914 79.0332C389.132 79.5635 389.437 79.9731 389.83 80.2619C390.228 80.546 390.694 80.688 391.229 80.688C391.608 80.688 391.947 80.617 392.245 80.475C392.548 80.3282 392.801 80.1175 393.005 79.8429C393.208 79.5682 393.348 79.2344 393.424 78.8414H395.881C395.82 79.6132 395.592 80.2974 395.199 80.894C394.806 81.4858 394.271 81.9499 393.594 82.286C392.917 82.6175 392.122 82.7832 391.208 82.7832ZM402.822 82.7832C401.728 82.7832 400.784 82.5559 399.988 82.1014C399.197 81.6421 398.589 80.9934 398.163 80.1554C397.737 79.3126 397.524 78.3206 397.524 77.1795C397.524 76.0573 397.737 75.0725 398.163 74.225C398.594 73.3727 399.195 72.7098 399.967 72.2363C400.739 71.7581 401.645 71.519 402.687 71.519C403.359 71.519 403.994 71.6279 404.59 71.8457C405.192 72.0588 405.722 72.3902 406.181 72.84C406.645 73.2898 407.01 73.8627 407.275 74.5588C407.54 75.2501 407.673 76.0739 407.673 77.0304V77.8187H398.731V76.0858H405.208C405.204 75.5933 405.097 75.1554 404.889 74.7718C404.68 74.3836 404.389 74.0782 404.015 73.8556C403.646 73.6331 403.215 73.5218 402.723 73.5218C402.197 73.5218 401.735 73.6497 401.338 73.9054C400.94 74.1563 400.63 74.4877 400.407 74.8997C400.189 75.3069 400.078 75.7543 400.073 76.242V77.7548C400.073 78.3893 400.189 78.9338 400.421 79.3883C400.653 79.8381 400.978 80.1838 401.394 80.4252C401.811 80.662 402.299 80.7804 402.857 80.7804C403.232 80.7804 403.57 80.7283 403.873 80.6241C404.176 80.5152 404.439 80.3566 404.661 80.1483C404.884 79.9399 405.052 79.6819 405.166 79.3741L407.566 79.644C407.415 80.2785 407.126 80.8324 406.7 81.3059C406.278 81.7747 405.739 82.1393 405.08 82.3997C404.422 82.6554 403.669 82.7832 402.822 82.7832ZM412.419 76.1781V82.5701H409.848V71.661H412.305V73.5147H412.433C412.684 72.9039 413.084 72.4186 413.633 72.0588C414.187 71.6989 414.872 71.519 415.686 71.519C416.439 71.519 417.095 71.68 417.653 72.0019C418.217 72.3239 418.652 72.7903 418.96 73.4011C419.273 74.0119 419.426 74.7529 419.422 75.6241V82.5701H416.851V76.0218C416.851 75.2927 416.661 74.7221 416.283 74.3102C415.908 73.8983 415.39 73.6923 414.727 73.6923C414.277 73.6923 413.877 73.7917 413.527 73.9906C413.181 74.1847 412.909 74.4664 412.71 74.8358C412.516 75.2051 412.419 75.6525 412.419 76.1781ZM427.483 71.661V73.6497H421.212V71.661H427.483ZM422.76 69.0474H425.331V79.2889C425.331 79.6345 425.383 79.8997 425.487 80.0843C425.596 80.2643 425.738 80.3874 425.913 80.4537C426.088 80.5199 426.283 80.5531 426.496 80.5531C426.657 80.5531 426.803 80.5412 426.936 80.5176C427.073 80.4939 427.177 80.4726 427.248 80.4537L427.682 82.4636C427.544 82.5109 427.348 82.563 427.092 82.6198C426.841 82.6767 426.533 82.7098 426.169 82.7193C425.525 82.7382 424.945 82.6412 424.429 82.4281C423.913 82.2103 423.503 81.8741 423.2 81.4196C422.902 80.965 422.755 80.3968 422.76 79.715V69.0474ZM436.586 77.9821V71.661H439.157V82.5701H436.664V80.6312H436.551C436.304 81.242 435.9 81.7415 435.336 82.1298C434.777 82.518 434.089 82.7122 433.269 82.7122C432.554 82.7122 431.922 82.5536 431.373 82.2363C430.829 81.9144 430.402 81.448 430.095 80.8372C429.787 80.2216 429.633 79.4783 429.633 78.6071V71.661H432.204V78.2093C432.204 78.9006 432.393 79.4499 432.772 79.8571C433.151 80.2643 433.648 80.4679 434.264 80.4679C434.643 80.4679 435.009 80.3755 435.365 80.1909C435.72 80.0062 436.011 79.7316 436.238 79.367C436.47 78.9977 436.586 78.536 436.586 77.9821ZM441.801 82.5701V71.661H444.294V73.4792H444.408C444.606 72.8495 444.947 72.3642 445.43 72.0233C445.918 71.6776 446.474 71.5048 447.099 71.5048C447.241 71.5048 447.4 71.5119 447.575 71.5261C447.755 71.5356 447.904 71.5521 448.023 71.5758V73.9409C447.914 73.903 447.741 73.8698 447.504 73.8414C447.272 73.8083 447.047 73.7917 446.829 73.7917C446.361 73.7917 445.939 73.8935 445.565 74.0971C445.196 74.296 444.905 74.573 444.692 74.9281C444.479 75.2832 444.372 75.6928 444.372 76.1568V82.5701H441.801ZM451.661 86.661C451.31 86.661 450.986 86.6326 450.688 86.5758C450.394 86.5237 450.16 86.4622 449.985 86.3912L450.581 84.3883C450.955 84.4972 451.289 84.5493 451.583 84.5446C451.876 84.5398 452.134 84.4475 452.357 84.2676C452.584 84.0924 452.776 83.7988 452.932 83.3869L453.152 82.7974L449.196 71.661H451.924L454.438 79.8997H454.551L457.073 71.661H459.807L455.439 83.8912C455.236 84.4688 454.966 84.9636 454.629 85.3755C454.293 85.7922 453.881 86.1094 453.394 86.3272C452.911 86.5498 452.333 86.661 451.661 86.661Z" fill="white"/>
</svg>
